# xmcd
#
# Track frame offsets: 
#        150
#        10937
#        21480
#        31887
#        41287
#        54150
#        64322
#        79405
#        91055
#        104680
#        118042
#        127052
#        137745
#        148620
#        157340
#        167870
#        180835
#        190225
#        201405
#        212477
#        223922
#
# Disc length: 3113 seconds
#
# Revision: 2
# Processed by: cddbd v1.5.2PL0 Copyright (c) Steve Scherf et al.
# Submitted via: ExactAudioCopyFreeDBPlugin 1.0
#
DISCID=380c2715
DTITLE=Various Artist - Goldwax Collection
DYEAR=1992
DGENRE=Soul
TTITLE0=The Lyrics - Darling
TTITLE1=The Lyrics - How a Woman Does Her Man
TTITLE2=The Lyrics - The Side Wind
TTITLE3=Percy Milem - Crying Baby, Baby, Baby
TTITLE4=Percy Milem - I Don't Know What You've Got
TTITLE5=Percy Milem - She's a Mover
TTITLE6=Percy Milem - I Slipped a Little
TTITLE7=Percy Milem - I'm Crying Over You
TTITLE8=O. V. Wright - That's How Strong My Love Is
TTITLE9=O. V. Wright - There Goes My Used-To-Be
TTITLE10=Phillip and The Faithfuls - Love Me
TTITLE11=The Vel Tones - I Do
TTITLE12=Gene "Bowlegs" Miller - Toddlin'
TTITLE13=Eddie Jefferson - Some Other Time
TTITLE14=Timmy Thomas - Have Some Boogaloo
TTITLE15=Timmy Thomas - It's My Life
TTITLE16=Timmy Thomas - Whole Lot of Shakin' Goin' On
TTITLE17=Barbara Perry - Unlovable
TTITLE18=Barbara Perry - You Ain't Woman Enough
TTITLE19="Wee" Willie Walker - I Ain't Gonna Cheat No More
TTITLE20="Wee" Willie Walker - I Don't Want to Take a Chance
EXTD=
EXTT0=
EXTT1=
EXTT2=
EXTT3=
EXTT4=
EXTT5=
EXTT6=
EXTT7=
EXTT8=
EXTT9=
EXTT10=
EXTT11=
EXTT12=
EXTT13=
EXTT14=
EXTT15=
EXTT16=
EXTT17=
EXTT18=
EXTT19=
EXTT20=
PLAYORDER=
